<svg width="14" height="16" viewBox="0 0 14 16" fill="none" xmlns="http://www.w3.org/2000/svg">
<path d="M2.616 15.885C2.168 15.885 1.78667 15.7277 1.472 15.413C1.15733 15.0983 1 14.7173 1 14.27V1.88499H0V0.88499H4V0.11499H10V0.88499H14V1.88499H13V14.27C13 14.73 12.846 15.1143 12.538 15.423C12.23 15.7317 11.8453 15.8857 11.384 15.885H2.616ZM12 1.88499H2V14.27C2 14.4493 2.05767 14.5967 2.173 14.712C2.28833 14.8273 2.436 14.885 2.616 14.885H11.385C11.5383 14.885 11.6793 14.821 11.808 14.693C11.9367 14.565 12.0007 14.4237 12 14.269V1.88499ZM4.808 12.885H5.808V3.88499H4.808V12.885ZM8.192 12.885H9.192V3.88499H8.192V12.885Z" fill="black"/>
</svg>
